<svg id="Layer_1" data-name="Layer 1" xmlns="http://www.w3.org/2000/svg" xmlns:xlink="http://www.w3.org/1999/xlink" viewBox="0 0 231.93 463.42"><defs><style>.cls-1,.cls-10,.cls-2,.cls-7,.cls-8,.cls-9{fill:none;stroke-miterlimit:10;}.cls-1,.cls-2{stroke-width:7px;}.cls-1{stroke:url(#linear-gradient);}.cls-2{stroke:url(#linear-gradient-2);}.cls-3{fill:url(#linear-gradient-3);}.cls-4{fill:url(#linear-gradient-4);}.cls-5{fill:url(#linear-gradient-5);}.cls-6{fill:url(#linear-gradient-6);}.cls-10,.cls-7,.cls-8,.cls-9{stroke-width:4px;}.cls-7{stroke:url(#linear-gradient-7);}.cls-8{stroke:url(#linear-gradient-8);}.cls-9{stroke:url(#linear-gradient-9);}.cls-10{stroke:url(#linear-gradient-10);}</style><linearGradient id="linear-gradient" x1="146.52" y1="200.2" x2="356.67" y2="200.2" gradientUnits="userSpaceOnUse"><stop offset="0.04" stop-color="#4d67ff"/><stop offset="0.08" stop-color="#5371ff"/><stop offset="0.26" stop-color="#6894ff"/><stop offset="0.44" stop-color="#78b0ff"/><stop offset="0.63" stop-color="#84c3ff"/><stop offset="0.81" stop-color="#8bcfff"/><stop offset="1" stop-color="#8dd3ff"/></linearGradient><linearGradient id="linear-gradient-2" x1="145.89" y1="307.38" x2="355.99" y2="307.38" xlink:href="#linear-gradient"/><linearGradient id="linear-gradient-3" x1="199.71" y1="154.95" x2="231.93" y2="154.95" xlink:href="#linear-gradient"/><linearGradient id="linear-gradient-4" x1="0" y1="303.12" x2="32.21" y2="303.12" xlink:href="#linear-gradient"/><linearGradient id="linear-gradient-5" x1="98.25" y1="134.01" x2="130.46" y2="134.01" xlink:href="#linear-gradient"/><linearGradient id="linear-gradient-6" x1="104.69" y1="320.84" x2="136.9" y2="320.84" xlink:href="#linear-gradient"/><linearGradient id="linear-gradient-7" x1="245.33" y1="312.52" x2="328.17" y2="312.52" xlink:href="#linear-gradient"/><linearGradient id="linear-gradient-8" x1="169.47" y1="188.95" x2="253.9" y2="188.95" xlink:href="#linear-gradient"/><linearGradient id="linear-gradient-9" x1="142.37" y1="428.27" x2="281.28" y2="428.27" xlink:href="#linear-gradient"/><linearGradient id="linear-gradient-10" x1="212.26" y1="78.22" x2="358.48" y2="78.22" xlink:href="#linear-gradient"/></defs><path class="cls-1" d="M353.59,183.81c-12.59-23.47-23.74-47.72-37.18-70.73-14-24-30.73-49.31-58.43-58.54-30-10-65,1.07-86.23,23.83-32.81,35.2-24.06,77.26-2.75,115.56,29.21,52.52,58.06,105.25,87.95,157.38" transform="translate(-132.93 -24.03)"/><path class="cls-2" d="M149,323.65c12.56,23.48,23.69,47.74,37.1,70.77,14,24,30.68,49.34,58.37,58.6,30,10,65-1,86.26-23.74,32.84-35.16,24.14-77.23,2.87-115.56-29.15-52.54-57.94-105.31-87.78-157.47" transform="translate(-132.93 -24.03)"/><circle class="cls-3" cx="215.82" cy="154.95" r="16.11"/><circle class="cls-4" cx="16.11" cy="303.12" r="16.11"/><circle class="cls-5" cx="114.35" cy="134.01" r="16.11"/><circle class="cls-6" cx="120.8" cy="320.84" r="16.11"/><path class="cls-7" d="M247.1,206.17q15.75,30.06,31.35,60.22c8.4,16.23,16.83,32.45,25.05,48.77,11.47,22.77,28.3,45.63,20.82,72.48a56,56,0,0,1-22.07,30.54" transform="translate(-132.93 -24.03)"/><path class="cls-8" d="M252.14,295q-16-29.92-31.92-59.93c-8.55-16.15-17.14-32.28-25.52-48.53C183,163.92,166,141.21,173.2,114.29A55.93,55.93,0,0,1,195,83.55" transform="translate(-132.93 -24.03)"/><path class="cls-9" d="M144.22,369.85C156.45,399.53,170.63,430.49,193,454c22.79,23.91,55.85,32.87,88.15,31.31" transform="translate(-132.93 -24.03)"/><path class="cls-10" d="M356.72,131.45c-35.28-64.8-68.32-119.92-144-102" transform="translate(-132.93 -24.03)"/></svg>