<svg id="Layer_1" data-name="Layer 1" xmlns="http://www.w3.org/2000/svg" xmlns:xlink="http://www.w3.org/1999/xlink" viewBox="0 0 19.67 39.22"><defs><style>.cls-1,.cls-10,.cls-2,.cls-7,.cls-8,.cls-9{fill:none;stroke-miterlimit:10;}.cls-1{stroke:url(#linear-gradient);}.cls-2{stroke:url(#linear-gradient-2);}.cls-3{fill:url(#linear-gradient-3);}.cls-4{fill:url(#linear-gradient-4);}.cls-5{fill:url(#linear-gradient-5);}.cls-6{fill:url(#linear-gradient-6);}.cls-10,.cls-7,.cls-8,.cls-9{stroke-width:0.25px;}.cls-7{stroke:url(#linear-gradient-7);}.cls-8{stroke:url(#linear-gradient-8);}.cls-9{stroke:url(#linear-gradient-9);}.cls-10{stroke:url(#linear-gradient-10);}</style><linearGradient id="linear-gradient" x1="15.07" y1="19.26" x2="33.28" y2="19.26" gradientUnits="userSpaceOnUse"><stop offset="0.04" stop-color="#4d67ff"/><stop offset="0.08" stop-color="#5371ff"/><stop offset="0.26" stop-color="#6894ff"/><stop offset="0.44" stop-color="#78b0ff"/><stop offset="0.63" stop-color="#84c3ff"/><stop offset="0.81" stop-color="#8bcfff"/><stop offset="1" stop-color="#8dd3ff"/></linearGradient><linearGradient id="linear-gradient-2" x1="15.04" y1="28.46" x2="33.25" y2="28.46" xlink:href="#linear-gradient"/><linearGradient id="linear-gradient-3" x1="16.94" y1="13.1" x2="19.67" y2="13.1" xlink:href="#linear-gradient"/><linearGradient id="linear-gradient-4" x1="0" y1="25.67" x2="2.73" y2="25.67" xlink:href="#linear-gradient"/><linearGradient id="linear-gradient-5" x1="8.33" y1="11.32" x2="11.07" y2="11.32" xlink:href="#linear-gradient"/><linearGradient id="linear-gradient-6" x1="8.88" y1="27.17" x2="11.61" y2="27.17" xlink:href="#linear-gradient"/><linearGradient id="linear-gradient-7" x1="23.7" y1="28.83" x2="30.64" y2="28.83" xlink:href="#linear-gradient"/><linearGradient id="linear-gradient-8" x1="17.27" y1="18.37" x2="24.35" y2="18.37" xlink:href="#linear-gradient"/><linearGradient id="linear-gradient-9" x1="14.97" y1="38.65" x2="26.7" y2="38.65" xlink:href="#linear-gradient"/><linearGradient id="linear-gradient-10" x1="20.86" y1="8.98" x2="33.22" y2="8.98" xlink:href="#linear-gradient"/></defs><path class="cls-1" d="M32.84,17.92c-1.07-2-2-4-3.15-6s-2.61-4.18-5-5a7.2,7.2,0,0,0-7.31,2c-2.79,3-2.05,6.55-.24,9.8,2.48,4.46,4.93,8.93,7.46,13.35" transform="translate(-14.12 -4.41)"/><path class="cls-2" d="M15.48,29.78c1.07,2,2,4,3.15,6s2.6,4.18,4.95,5a7.24,7.24,0,0,0,7.32-2c2.79-3,2.05-6.56.24-9.81C28.67,24.49,26.23,20,23.7,15.59" transform="translate(-14.12 -4.41)"/><circle class="cls-3" cx="18.31" cy="13.1" r="1.37"/><circle class="cls-4" cx="1.37" cy="25.67" r="1.37"/><circle class="cls-5" cx="9.7" cy="11.32" r="1.37"/><circle class="cls-6" cx="10.25" cy="27.17" r="1.37"/><path class="cls-7" d="M23.81,19.82l2.66,5.11q1.07,2.05,2.12,4.13c1,1.94,2.4,3.88,1.77,6.15a4.76,4.76,0,0,1-1.87,2.59" transform="translate(-14.12 -4.41)"/><path class="cls-8" d="M24.23,27.36l-2.7-5.09c-.73-1.37-1.46-2.74-2.17-4.11-1-1.92-2.43-3.85-1.82-6.13a4.71,4.71,0,0,1,1.85-2.61" transform="translate(-14.12 -4.41)"/><path class="cls-9" d="M15.08,33.7a22.67,22.67,0,0,0,4.14,7.14A9.54,9.54,0,0,0,26.7,43.5" transform="translate(-14.12 -4.41)"/><path class="cls-10" d="M33.11,13.48c-3-5.5-5.8-10.17-12.22-8.65" transform="translate(-14.12 -4.41)"/></svg>