<svg id="Layer_1" data-name="Layer 1" xmlns="http://www.w3.org/2000/svg" xmlns:xlink="http://www.w3.org/1999/xlink" viewBox="0 0 78.59 156.69"><defs><style>.cls-1,.cls-10,.cls-2,.cls-7,.cls-8,.cls-9{fill:none;stroke-miterlimit:10;}.cls-1,.cls-2{stroke-width:3px;}.cls-1{stroke:url(#linear-gradient);}.cls-2{stroke:url(#linear-gradient-2);}.cls-3{fill:url(#linear-gradient-3);}.cls-4{fill:url(#linear-gradient-4);}.cls-5{fill:url(#linear-gradient-5);}.cls-6{fill:url(#linear-gradient-6);}.cls-7{stroke:url(#linear-gradient-7);}.cls-8{stroke:url(#linear-gradient-8);}.cls-9{stroke:url(#linear-gradient-9);}.cls-10{stroke:url(#linear-gradient-10);}</style><linearGradient id="linear-gradient" x1="60.95" y1="77.29" x2="132.76" y2="77.29" gradientUnits="userSpaceOnUse"><stop offset="0.04" stop-color="#4d67ff"/><stop offset="0.08" stop-color="#5371ff"/><stop offset="0.26" stop-color="#6894ff"/><stop offset="0.44" stop-color="#78b0ff"/><stop offset="0.63" stop-color="#84c3ff"/><stop offset="0.81" stop-color="#8bcfff"/><stop offset="1" stop-color="#8dd3ff"/></linearGradient><linearGradient id="linear-gradient-2" x1="60.78" y1="113.77" x2="132.57" y2="113.77" xlink:href="#linear-gradient"/><linearGradient id="linear-gradient-3" x1="67.68" y1="52.33" x2="78.59" y2="52.33" xlink:href="#linear-gradient"/><linearGradient id="linear-gradient-4" x1="0" y1="102.54" x2="10.92" y2="102.54" xlink:href="#linear-gradient"/><linearGradient id="linear-gradient-5" x1="33.29" y1="45.23" x2="44.21" y2="45.23" xlink:href="#linear-gradient"/><linearGradient id="linear-gradient-6" x1="35.48" y1="108.55" x2="46.39" y2="108.55" xlink:href="#linear-gradient"/><linearGradient id="linear-gradient-7" x1="94.91" y1="115.4" x2="122.65" y2="115.4" xlink:href="#linear-gradient"/><linearGradient id="linear-gradient-8" x1="69.23" y1="73.59" x2="97.5" y2="73.59" xlink:href="#linear-gradient"/><linearGradient id="linear-gradient-9" x1="60.03" y1="154.6" x2="106.93" y2="154.6" xlink:href="#linear-gradient"/><linearGradient id="linear-gradient-10" x1="83.59" y1="36.08" x2="132.94" y2="36.08" xlink:href="#linear-gradient"/></defs><path class="cls-1" d="M131.44,71.82c-4.27-8-8-16.17-12.6-24C114.09,39.71,108.43,31.14,99,28c-10.16-3.39-22,.36-29.22,8.08C58.7,48,61.66,62.27,68.89,75.25c9.9,17.79,19.67,35.66,29.8,53.33" transform="translate(-56.67 -17.85)"/><path class="cls-2" d="M62.1,119.2c4.26,8,8,16.18,12.57,24,4.74,8.14,10.4,16.72,19.78,19.86,10.16,3.39,22-.34,29.23-8.05,11.13-11.91,8.19-26.17,1-39.16C114.78,98,105,80.15,94.91,62.48" transform="translate(-56.67 -17.85)"/><circle class="cls-3" cx="73.14" cy="52.33" r="5.46"/><circle class="cls-4" cx="5.46" cy="102.54" r="5.46"/><circle class="cls-5" cx="38.75" cy="45.23" r="5.46"/><circle class="cls-6" cx="40.93" cy="108.55" r="5.46"/><path class="cls-7" d="M95.36,79.39Q100.69,89.59,106,99.8c2.84,5.5,5.7,11,8.49,16.53,3.88,7.71,9.59,15.46,7,24.56A19,19,0,0,1,114,151.24" transform="translate(-56.67 -17.85)"/><path class="cls-8" d="M97.06,109.51Q91.63,99.37,86.24,89.2c-2.89-5.47-5.8-10.94-8.64-16.45-4-7.67-9.74-15.37-7.29-24.49a19,19,0,0,1,7.38-10.42" transform="translate(-56.67 -17.85)"/><path class="cls-9" d="M60.49,134.86c4.15,10.06,8.95,20.55,16.54,28.51S96,174.51,106.9,174" transform="translate(-56.67 -17.85)"/><path class="cls-10" d="M132.5,54.07c-12-22-23.15-40.63-48.8-34.56" transform="translate(-56.67 -17.85)"/></svg>