<svg id="Layer_1" data-name="Layer 1" xmlns="http://www.w3.org/2000/svg" xmlns:xlink="http://www.w3.org/1999/xlink" viewBox="0 0 79 157.49"><defs><style>.cls-1,.cls-10,.cls-2,.cls-7,.cls-8,.cls-9{fill:none;stroke-miterlimit:10;}.cls-1,.cls-2{stroke-width:4px;}.cls-1{stroke:url(#linear-gradient);}.cls-2{stroke:url(#linear-gradient-2);}.cls-3{fill:url(#linear-gradient-3);}.cls-4{fill:url(#linear-gradient-4);}.cls-5{fill:url(#linear-gradient-5);}.cls-6{fill:url(#linear-gradient-6);}.cls-7{stroke:url(#linear-gradient-7);}.cls-8{stroke:url(#linear-gradient-8);}.cls-9{stroke:url(#linear-gradient-9);}.cls-10{stroke:url(#linear-gradient-10);}</style><linearGradient id="linear-gradient" x1="60.82" y1="72.84" x2="133.92" y2="72.84" gradientUnits="userSpaceOnUse"><stop offset="0.04" stop-color="#4d67ff"/><stop offset="0.08" stop-color="#5371ff"/><stop offset="0.26" stop-color="#6894ff"/><stop offset="0.44" stop-color="#78b0ff"/><stop offset="0.63" stop-color="#84c3ff"/><stop offset="0.81" stop-color="#8bcfff"/><stop offset="1" stop-color="#8dd3ff"/></linearGradient><linearGradient id="linear-gradient-2" x1="60.7" y1="109.75" x2="133.78" y2="109.75" xlink:href="#linear-gradient"/><linearGradient id="linear-gradient-3" x1="68.03" y1="52.6" x2="79" y2="52.6" xlink:href="#linear-gradient"/><linearGradient id="linear-gradient-4" x1="0" y1="103.07" x2="10.97" y2="103.07" xlink:href="#linear-gradient"/><linearGradient id="linear-gradient-5" x1="33.47" y1="45.47" x2="44.44" y2="45.47" xlink:href="#linear-gradient"/><linearGradient id="linear-gradient-6" x1="35.66" y1="109.1" x2="46.63" y2="109.1" xlink:href="#linear-gradient"/><linearGradient id="linear-gradient-7" x1="95.45" y1="111.27" x2="123.32" y2="111.27" xlink:href="#linear-gradient"/><linearGradient id="linear-gradient-8" x1="69.63" y1="69.24" x2="98.04" y2="69.24" xlink:href="#linear-gradient"/><linearGradient id="linear-gradient-9" x1="60.38" y1="150.67" x2="107.52" y2="150.67" xlink:href="#linear-gradient"/><linearGradient id="linear-gradient-10" x1="84.06" y1="31.54" x2="133.67" y2="31.54" xlink:href="#linear-gradient"/></defs><path class="cls-1" d="M132.16,67.46c-4.29-8-8.09-16.25-12.66-24.09-4.78-8.18-10.47-16.8-19.91-19.94-10.21-3.41-22.14.36-29.37,8.12-11.17,12-8.2,26.31-.94,39.36,10,17.89,19.78,35.85,30,53.6" transform="translate(-57 -13.22)"/><path class="cls-2" d="M62.46,115.09c4.28,8,8.07,16.26,12.64,24.11,4.77,8.18,10.45,16.81,19.88,20,10.21,3.42,22.15-.34,29.38-8.09,11.19-12,8.23-26.3,1-39.36-9.93-17.9-19.74-35.87-29.9-53.64" transform="translate(-57 -13.22)"/><circle class="cls-3" cx="73.51" cy="52.6" r="5.49"/><circle class="cls-4" cx="5.49" cy="103.07" r="5.49"/><circle class="cls-5" cx="38.95" cy="45.47" r="5.49"/><circle class="cls-6" cx="41.15" cy="109.1" r="5.49"/><path class="cls-7" d="M95.89,75.08q5.37,10.23,10.68,20.51c2.86,5.53,5.73,11,8.53,16.61,3.91,7.76,9.64,15.55,7.09,24.69a19,19,0,0,1-7.52,10.4" transform="translate(-57 -13.22)"/><path class="cls-8" d="M97.6,105.34Q92.14,95.16,86.73,84.93c-2.91-5.5-5.84-11-8.69-16.53-4-7.72-9.78-15.45-7.33-24.62a19.12,19.12,0,0,1,7.42-10.47" transform="translate(-57 -13.22)"/><path class="cls-9" d="M60.84,130.83c4.17,10.11,9,20.65,16.63,28.66s19,11.19,30,10.66" transform="translate(-57 -13.22)"/><path class="cls-10" d="M133.23,49.63c-12-22.08-23.27-40.85-49-34.75" transform="translate(-57 -13.22)"/></svg>